<svg id="Layer_1" data-name="Layer 1" xmlns="http://www.w3.org/2000/svg" viewBox="0 0 512 512"><title>envelope</title><path d="M2.38,85.55s-8.06-1.94,5.47-1.81L18.68,83,26.62,81l7.89.55s2.26,5.1,6.78,61.39a299.38,299.38,0,0,1,4.49,52.93s-2.32,220.35-7.09,236.91c0,0,6.82-138.16,4.65-146.88,0,0-5.56,132.12-9.86,142.27,0,0,6.36-128.17.85-139.58,0,0-5.87,118-11.34,132.26,0,0,2.19-22.64,1.51-28.68l-1.65,10.54.24-17,1.25-9.8s-3.76,26.58-5.68,28.44c0,0,2.29,12.12,1.44-35.86C20.1,368.53,33.39,255,2.38,85.55Z" fill="#e6e4e3"/><path d="M29.12,118.83s-2.58,8.67-2.43-5.92l-1-11.68-2.58-8.58.77-8.52s6.79-2.44,82.3-7.3c0,0,30.19-4.89,71-4.89,0,0,295.45,2.51,317.65,7.66,0,0-185.25-7.34-196.94-5,0,0,177.17,6,190.77,10.64,0,0-171.84-6.88-187.13-.93,0,0,158.17,6.33,177.32,12.25,0,0-30.35-2.38-38.47-1.65l14.14,1.79-22.77-.27-13.15-1.35s35.64,4.07,38.12,6.15c0,0,16.27-2.47-48.07-1.57C408.54,99.69,256.35,85.35,29.12,118.83Z" fill="#e6e4e3"/><path d="M468.13,79.44s-8.11-1.85,5.55-1.75l10.93-.74,8-1.85,8,.53s2.28,4.88,6.84,58.89A272.49,272.49,0,0,1,512,185.29s-2.36,211.41-7.17,227.28c0,0,6.87-132.54,4.7-140.89,0,0-5.64,126.75-10,136.48,0,0,6.44-122.95.86-133.9,0,0-5.92,113.18-11.46,126.88,0,0,2.23-21.73,1.53-27.52l-1.67,10.12.24-16.29,1.28-9.42s-3.82,25.52-5.74,27.28c0,0,2.3,11.65,1.45-34.4C486,350.9,499.47,242,468.13,79.44Z" fill="#e6e4e3"/><path d="M23.06,440.34s-2.53,7.73-2.38-5.25l-1-10.4L17.09,417l.76-7.57s6.7-2.19,81.27-6.5a538.39,538.39,0,0,1,70.09-4.35s291.84,2.23,313.76,6.81c0,0-183-6.53-194.51-4.46,0,0,175,5.35,188.4,9.51,0,0-169.73-6.13-184.83-.84,0,0,156.23,5.64,175.14,10.89,0,0-30-2.09-38-1.44l14,1.57-22.51-.22-13-1.2s35.2,3.59,37.66,5.44c0,0,16.07-2.2-47.5-1.35C397.83,423.33,247.51,410.54,23.06,440.34Z" fill="#e6e4e3"/><path d="M13.38,89.34s-5.66,3.14,1.84-4.14l5.42-6.38,3.13-5.52,4.68-3.92s4.54,2,43.61,35.73a322.79,322.79,0,0,1,36.87,31.56S250.85,279.45,259,292.66c0,0-86-92.42-92.89-96.84,0,0,82.81,87.88,87,96.72,0,0-79.79-85.76-90.21-90.11,0,0,73.42,78.95,79.7,91.11,0,0-13.52-15.75-17.82-19.26l5.95,7.67-10.91-11-5.69-7s15.21,19.11,15.37,21.34c0,0,9.12,6.56-22.52-23.81C207,261.48,140.54,181.36,13.38,89.34Z" fill="#e6e4e3"/><path d="M266.07,314.88s3.26,5.52-4.08-1.9l-6.42-5.41-5.5-3.16-4-4.6s1.8-4.24,33.13-40.11a274.67,274.67,0,0,1,29.3-33.86S442.1,96.32,454.66,89.09c0,0-86.69,78.3-90.74,84.63,0,0,82.4-75.39,90.85-79.06,0,0-80.46,72.59-84.29,82.36,0,0,74.07-66.84,85.65-72.33,0,0-14.79,12.23-18.06,16.18l7.25-5.35L435,125.47l-6.59,5.15s18-13.74,20.2-13.81c0,0,6-8.42-22.31,20.51C426.28,137.32,350.82,197.47,266.07,314.88Z" fill="#e6e4e3"/></svg>