<svg id="Layer_1" data-name="Layer 1" xmlns="http://www.w3.org/2000/svg" viewBox="0 0 512 512"><title>phone</title><path d="M159.05,209.17c.34.82-15.35,9.21-13-5.34a75,75,0,0,1-3.15-11.68c-3-2.79-4.88-7.16-6.63-10.54l4.86-6.91c-1.9-2.62,9.48,9,26-8.31,7.37-9.62,5.2-36.31-10.91-69.17-8.13-15.95-19.17-38.7-32-55.61C111.45,23.71,100.25,30.34,80,54.17c.64-.05-15.28,17.68-20,57.28-4.36,39.3-.07,99.43,31.14,158.9,1.89.76,19.69,57.2,92.45,123.45,55.53,65.08,204,140,277.41,55.7,2.74-10.55,2.46-26.09-1.31-37.89-3.13-12.39-8.85-15.3-23.29-25.61-23.08-14.42-60-29.33-80.1-30.85-7.14.55-8.53,1.8-9.66,12.22-4.53,10.41,12.88,32.2-18.06,58.46-55.59,17.25-76.3-25.46-94.67-36.74-46-35.74-68.7-75-95.47-100.36-24.72-27.71-36.66-55.11-37.57-68.11-2.76,1.75,14.93,49.49,60.27,91.45,18.14,19.84,42.73,54.17,74.07,76.67,13.89,11.37,27.06,28.93,54.06,38.81,13.87,3.23,30,6.83,48.09-10.22,13.15-20.17,7.44-33.06,8.37-42.47,1.43-20.19.57-20.52,14.27-20.32,14.19,2.15,36.27,10.57,51.59,17.55,16.12,6.91,33.48,18.46,42,26.45,6.31,6.38,9.85,23.45,9.64,36,4.43,48.05-68.69,45.57-71.72,53.09-8.43-1,54.45-5.87,69.48-33.23,6.61-18.16,6.68-55.49-18.87-67.23a211.1,211.1,0,0,0-46.94-24.11c-18.4-7.22-37.18-13.44-44.89-9.8-7.1,1.28-7.59,14.36-6.88,39.49,3,12.57-15.55,36.76-31.32,34.3-13.84,2.1-27.82-3.45-37.38-9.23-19.36-12.32-31.71-27.42-44.2-37a254.68,254.68,0,0,1-38.73-38.2c-40.29-47.88-75.32-85.65-77.41-100-1.51.8,20.7,36.25,60.12,76,16.38,20.69,42.84,50,69.81,70.37,13.62,11.32,26.32,27.76,51.25,33.9,11,1.83,27.15,3.73,38.86-11.86,8.23-15.16,4.95-26.53,5.23-35.72-6.24-41.33,32.72-26.24,68.27-12.15,16.38,7.16,32,15.39,44.7,25.47,11.48,7.08,15.08,20.9,17.2,34.91,10.37,62.44-54.6,60.91-63.91,69.65-3.82-3.75,45.19-.57,64.7-37.35,6.56-20.12,6.18-56.69-17.55-72.52-24.61-18.8-60.12-34.31-92.47-40.87-16.24-2.82-28.29,9-27.3,26.28-.45,8.47.94,17.81-.61,28.07C333.14,408,319,419,309.27,416.92c-43.27-2.65-59.33-39.86-85-55.57-41.88-45.61-71.21-81.79-81.36-95.29.42-.59,67.31,82.09,90.28,99.37-12.71-10.7-23.43-23.18-33.7-36.06,16.44,21.06,37.65,36.72,57.68,54.4,11.11,10.33,22.12,21.66,36.84,26.89-5,6.77-95-80.12-96.19-90,0,0-9.64-10.4-1,.47,4.44,5.28,12.61,16.94,31.51,34.3,9.29,8.17,23.18,18.62,37.47,32.05,12,12.26,39.84,30.43,55.78,13.55.49.5,2.91-6,2.29-22.18-4.58-12.14,5.34-55.43,43.49-44.9,30,8.37,68.3,20.1,102.59,50.86,14.16,18.48,17.93,45,12.2,70.39-6,27.87-36.79,39.82-63.81,46.61-55.85,26.07-123.14-2.6-183.46-34.28-30.23-18.14-58-43-84.11-70C123.47,371.89,95.6,341.65,77,305.31,36.41,236.75,6.18,142.63,46.15,50.65c13-21,25.77-44.48,61.25-50.65,40.6,2.32,50,36.06,62.66,53.77,11.73,20.72,24.47,42.94,31.56,70.42C210.19,146.46,206.85,199.88,159.05,209.17Z" fill="#e6e4e3"/></svg>